<svg xmlns="http://www.w3.org/2000/svg" xmlns:xlink="http://www.w3.org/1999/xlink" width="800" zoomAndPan="magnify" viewBox="0 0 600 599.999999" height="800" preserveAspectRatio="xMidYMid meet" version="1.2"><defs/><g id="de71678ddf"><path style="fill-rule:nonzero;fill:#0cc0df;fill-opacity:1;stroke-width:1;stroke-linecap:butt;stroke-linejoin:miter;stroke:#3fb24f;stroke-opacity:1;stroke-miterlimit:10;" d="M 191.222403 381.946876 C 85.890623 381.946876 0.500406 296.556659 0.500406 191.22239 C 0.500406 85.888121 85.890623 0.500393 191.222403 0.500393 C 296.556672 0.500393 381.946889 85.890611 381.946889 191.22239 C 381.946889 296.556659 296.556672 381.946876 191.222403 381.946876 Z M 191.222403 381.946876 " transform="matrix(1.569038,0,0,1.569038,0.0000003,0.00002)"/><path style=" stroke:none;fill-rule:nonzero;fill:#ffffff;fill-opacity:1;" d="M 220.179688 449.28125 L 125.414062 326.199219 C 117.019531 315.296875 119.054688 299.660156 129.953125 291.265625 L 140.210938 283.371094 C 151.109375 274.976562 166.75 277.011719 175.140625 287.910156 L 221.945312 348.699219 C 231.695312 361.363281 250.683594 361.695312 260.871094 349.382812 L 425.761719 150.109375 C 434.527344 139.507812 450.230469 138.027344 460.828125 146.796875 L 470.804688 155.050781 C 481.402344 163.820312 482.886719 179.519531 474.117188 190.117188 L 259.105469 449.964844 C 248.917969 462.28125 229.929688 461.945312 220.179688 449.28125 Z M 220.179688 449.28125 "/><g style="fill:#0cc0df;fill-opacity:1;"><g transform="translate(285.890614, 279.806994)"><path style="stroke:none" d="M 3.6875 0 C 3.6875 0 3.703125 -0.0078125 3.734375 -0.03125 C 3.773438 -0.0507812 3.800781 -0.101562 3.8125 -0.1875 C 3.820312 -0.28125 3.796875 -0.421875 3.734375 -0.609375 L 3.328125 -1.65625 L 1.34375 -1.65625 L 0.9375 -0.609375 C 0.863281 -0.421875 0.832031 -0.28125 0.84375 -0.1875 C 0.863281 -0.101562 0.890625 -0.0507812 0.921875 -0.03125 C 0.960938 -0.0078125 0.984375 0 0.984375 0 L 0.078125 0 C 0.078125 0 0.101562 -0.0078125 0.15625 -0.03125 C 0.207031 -0.0507812 0.269531 -0.101562 0.34375 -0.1875 C 0.414062 -0.28125 0.488281 -0.414062 0.5625 -0.59375 L 1.890625 -4.140625 C 1.960938 -4.335938 1.992188 -4.476562 1.984375 -4.5625 C 1.972656 -4.65625 1.945312 -4.710938 1.90625 -4.734375 C 1.875 -4.753906 1.859375 -4.765625 1.859375 -4.765625 L 2.703125 -4.765625 C 2.753906 -4.765625 2.804688 -4.75 2.859375 -4.71875 C 2.910156 -4.695312 2.96875 -4.640625 3.03125 -4.546875 C 3.09375 -4.460938 3.160156 -4.328125 3.234375 -4.140625 L 4.5625 -0.59375 C 4.632812 -0.414062 4.707031 -0.28125 4.78125 -0.1875 C 4.863281 -0.101562 4.929688 -0.0507812 4.984375 -0.03125 C 5.035156 -0.0078125 5.0625 0 5.0625 0 Z M 1.453125 -1.96875 L 3.21875 -1.96875 L 2.390625 -4.15625 C 2.378906 -4.195312 2.359375 -4.242188 2.328125 -4.296875 C 2.304688 -4.242188 2.289062 -4.195312 2.28125 -4.15625 Z M 1.453125 -1.96875 "/></g></g></g></svg>